Bevan_ik.ufo
<glyph name="percent" format="1">
  <advance width="2728"/>
  <unicode hex="0025"/>
  <outline>
    <contour>
      <point x="1675" y="521" type="qcurve"/>
      <point x="1675" y="273"/>
      <point x="1947" y="-18"/>
      <point x="2193" y="-18" type="qcurve"/>
      <point x="2310" y="-18"/>
      <point x="2496" y="78"/>
      <point x="2610" y="240"/>
      <point x="2670" y="442"/>
      <point x="2670" y="555" type="qcurve"/>
      <point x="2670" y="800"/>
      <point x="2412" y="1096"/>
      <point x="2169" y="1096" type="qcurve"/>
      <point x="2021" y="1096"/>
      <point x="1793" y="939"/>
      <point x="1675" y="679"/>
    </contour>
    <contour>
      <point x="2175" y="755" type="qcurve"/>
      <point x="2198" y="753"/>
      <point x="2232" y="731"/>
      <point x="2252" y="690"/>
      <point x="2265" y="653"/>
      <point x="2269" y="595"/>
      <point x="2270" y="566"/>
      <point x="2269" y="540" type="qcurve"/>
      <point x="2269" y="513" type="line"/>
      <point x="2269" y="491"/>
      <point x="2267" y="457"/>
      <point x="2262" y="411"/>
      <point x="2248" y="378"/>
      <point x="2228" y="348"/>
      <point x="2194" y="332"/>
      <point x="2172" y="332" type="qcurve"/>
      <point x="2079" y="332"/>
      <point x="2079" y="540" type="qcurve"/>
      <point x="2079" y="651"/>
      <point x="2095" y="693" type="qcurve"/>
      <point x="2119" y="752"/>
    </contour>
    <contour>
      <point x="1441" y="0" type="line"/>
      <point x="1783" y="1623" type="line"/>
      <point x="1279" y="1623" type="line"/>
      <point x="938" y="0" type="line"/>
    </contour>
    <contour>
      <point x="56" y="1078" type="qcurve"/>
      <point x="56" y="830"/>
      <point x="328" y="539"/>
      <point x="574" y="539" type="qcurve"/>
      <point x="691" y="539"/>
      <point x="877" y="635"/>
      <point x="991" y="797"/>
      <point x="1051" y="999"/>
      <point x="1051" y="1112" type="qcurve"/>
      <point x="1051" y="1357"/>
      <point x="793" y="1653"/>
      <point x="550" y="1653" type="qcurve"/>
      <point x="402" y="1653"/>
      <point x="174" y="1496"/>
      <point x="56" y="1236"/>
    </contour>
    <contour>
      <point x="556" y="1312" type="qcurve"/>
      <point x="579" y="1310"/>
      <point x="613" y="1288"/>
      <point x="633" y="1247"/>
      <point x="646" y="1210"/>
      <point x="650" y="1152"/>
      <point x="651" y="1123"/>
      <point x="651" y="1096" type="qcurve"/>
      <point x="650" y="1070" type="line"/>
      <point x="650" y="1048"/>
      <point x="648" y="1014"/>
      <point x="643" y="968"/>
      <point x="629" y="935"/>
      <point x="609" y="905"/>
      <point x="575" y="889"/>
      <point x="553" y="889" type="qcurve"/>
      <point x="460" y="889"/>
      <point x="460" y="1097" type="qcurve"/>
      <point x="460" y="1208"/>
      <point x="476" y="1250" type="qcurve"/>
      <point x="499" y="1310"/>
    </contour>
  </outline>
</glyph>
<glyph name="parenleft" format="1">
  <advance width="966"/>
  <unicode hex="0028"/>
  <outline>
    <contour>
      <point x="912" y="1321" type="line"/>
      <point x="835" y="1319"/>
      <point x="715" y="1278"/>
      <point x="639" y="1201"/>
      <point x="588" y="1112"/>
      <point x="563" y="991"/>
      <point x="554" y="886"/>
      <point x="554" y="820" type="qcurve"/>
      <point x="554" y="742"/>
      <point x="571" y="608"/>
      <point x="618" y="471"/>
      <point x="694" y="375"/>
      <point x="822" y="314"/>
      <point x="906" y="314" type="qcurve"/>
      <point x="906" y="-17" type="line"/>
      <point x="733" y="-17"/>
      <point x="448" y="73"/>
      <point x="250" y="229"/>
      <point x="113" y="442"/>
      <point x="50" y="685"/>
      <point x="50" y="819" type="qcurve"/>
      <point x="50" y="1026"/>
      <point x="146" y="1331"/>
      <point x="351" y="1546"/>
      <point x="682" y="1653"/>
      <point x="912" y="1653" type="qcurve"/>
    </contour>
  </outline>
</glyph>
<glyph name="parenright" format="1">
  <advance width="966"/>
  <unicode hex="0029"/>
  <outline>
    <contour>
      <point x="54" y="1321" type="line"/>
      <point x="131" y="1319"/>
      <point x="251" y="1278"/>
      <point x="327" y="1201"/>
      <point x="378" y="1112"/>
      <point x="403" y="991"/>
      <point x="412" y="886"/>
      <point x="412" y="820" type="qcurve"/>
      <point x="412" y="742"/>
      <point x="395" y="608"/>
      <point x="348" y="471"/>
      <point x="272" y="375"/>
      <point x="144" y="314"/>
      <point x="60" y="314" type="qcurve"/>
      <point x="60" y="-17" type="line"/>
      <point x="233" y="-17"/>
      <point x="518" y="73"/>
      <point x="716" y="229"/>
      <point x="853" y="442"/>
      <point x="916" y="685"/>
      <point x="916" y="819" type="qcurve"/>
      <point x="916" y="1026"/>
      <point x="820" y="1331"/>
      <point x="615" y="1546"/>
      <point x="284" y="1653"/>
      <point x="54" y="1653" type="qcurve"/>
    </contour>
  </outline>
</glyph>
<glyph name="asterisk" format="1">
  <advance width="1347"/>
  <unicode hex="002A"/>
  <outline>
    <contour>
      <point x="92" y="1328" type="qcurve"/>
      <point x="69" y="1294"/>
      <point x="62" y="1212"/>
      <point x="106" y="1126"/>
      <point x="153" y="1095" type="qcurve"/>
      <point x="201" y="1063"/>
      <point x="337" y="1011"/>
      <point x="527" y="955"/>
      <point x="556" y="945" type="qcurve"/>
      <point x="524" y="934"/>
      <point x="339" y="879"/>
      <point x="201" y="826"/>
      <point x="153" y="795" type="qcurve"/>
      <point x="106" y="764"/>
      <point x="62" y="678"/>
      <point x="69" y="596"/>
      <point x="92" y="562" type="qcurve"/>
      <point x="127" y="507"/>
      <point x="254" y="481"/>
      <point x="331" y="526" type="qcurve"/>
      <point x="364" y="548"/>
      <point x="446" y="626"/>
      <point x="486" y="671"/>
      <point x="592" y="798"/>
      <point x="597" y="804" type="qcurve"/>
      <point x="591" y="784"/>
      <point x="550" y="647"/>
      <point x="532" y="576"/>
      <point x="512" y="469"/>
      <point x="512" y="429" type="qcurve"/>
      <point x="512" y="345"/>
      <point x="608" y="249"/>
      <point x="738" y="249"/>
      <point x="834" y="345"/>
      <point x="834" y="429" type="qcurve"/>
      <point x="834" y="469"/>
      <point x="814" y="578"/>
      <point x="797" y="642"/>
      <point x="752" y="791"/>
      <point x="748" y="804" type="qcurve"/>
      <point x="760" y="790"/>
      <point x="855" y="677"/>
      <point x="902" y="624"/>
      <point x="982" y="548"/>
      <point x="1015" y="526" type="qcurve"/>
      <point x="1092" y="481"/>
      <point x="1219" y="507"/>
      <point x="1254" y="562" type="qcurve"/>
      <point x="1277" y="596"/>
      <point x="1284" y="678"/>
      <point x="1240" y="764"/>
      <point x="1193" y="795" type="qcurve"/>
      <point x="1145" y="826"/>
      <point x="1007" y="879"/>
      <point x="822" y="933"/>
      <point x="789" y="945" type="qcurve"/>
      <point x="818" y="955"/>
      <point x="1008" y="1011"/>
      <point x="1145" y="1063"/>
      <point x="1193" y="1095" type="qcurve"/>
      <point x="1240" y="1126"/>
      <point x="1284" y="1212"/>
      <point x="1277" y="1294"/>
      <point x="1254" y="1328" type="qcurve"/>
      <point x="1219" y="1383"/>
      <point x="1092" y="1409"/>
      <point x="1015" y="1364" type="qcurve"/>
      <point x="982" y="1342"/>
      <point x="903" y="1267"/>
      <point x="853" y="1210"/>
      <point x="763" y="1103"/>
      <point x="748" y="1086" type="qcurve"/>
      <point x="754" y="1105"/>
      <point x="785" y="1208"/>
      <point x="802" y="1268"/>
      <point x="824" y="1355"/>
      <point x="834" y="1429"/>
      <point x="834" y="1461" type="qcurve"/>
      <point x="834" y="1545"/>
      <point x="738" y="1641"/>
      <point x="608" y="1641"/>
      <point x="512" y="1545"/>
      <point x="512" y="1461" type="qcurve"/>
      <point x="512" y="1421"/>
      <point x="532" y="1313"/>
      <point x="550" y="1245"/>
      <point x="592" y="1102"/>
      <point x="597" y="1086" type="qcurve"/>
      <point x="587" y="1098"/>
      <point x="490" y="1214"/>
      <point x="444" y="1265"/>
      <point x="364" y="1342"/>
      <point x="331" y="1364" type="qcurve"/>
      <point x="254" y="1409"/>
      <point x="127" y="1383"/>
    </contour>
  </outline>
</glyph>
<glyph name="period" format="1">
  <advance width="678"/>
  <unicode hex="002E"/>
  <outline>
    <contour>
      <point x="335" y="-27" type="qcurve"/>
      <point x="216" y="-27"/>
      <point x="58" y="108"/>
      <point x="58" y="223" type="qcurve"/>
      <point x="58" y="336"/>
      <point x="213" y="468"/>
      <point x="335" y="468" type="qcurve"/>
      <point x="462" y="468"/>
      <point x="622" y="336"/>
      <point x="622" y="223" type="qcurve"/>
      <point x="622" y="108"/>
      <point x="457" y="-27"/>
    </contour>
  </outline>
</glyph>
<glyph name="seven" format="1">
  <advance width="1232"/>
  <unicode hex="0037"/>
  <outline>
    <contour>
      <point x="63" y="878" type="line"/>
      <point x="281" y="878" type="line"/>
      <point x="281" y="963"/>
      <point x="343" y="1020"/>
      <point x="412" y="1020" type="qcurve"/>
      <point x="653" y="1020" type="line"/>
      <point x="148" y="0" type="line"/>
      <point x="680" y="0" type="line"/>
      <point x="1206" y="1067" type="line"/>
      <point x="1206" y="1337" type="line"/>
      <point x="63" y="1337" type="line"/>
    </contour>
  </outline>
</glyph>
<glyph name="less" format="1">
  <advance width="909"/>
  <unicode hex="003C"/>
  <outline>
    <contour>
      <point x="57" y="946" type="line"/>
      <point x="772" y="1542" type="line"/>
      <point x="772" y="1077" type="line"/>
      <point x="439" y="761" type="line"/>
      <point x="772" y="445" type="line"/>
      <point x="772" y="-20" type="line"/>
      <point x="57" y="576" type="line"/>
    </contour>
  </outline>
</glyph>
<glyph name="C" format="1">
  <advance width="1538"/>
  <unicode hex="0043"/>
  <outline>
    <contour>
      <point x="1456" y="612" type="line"/>
      <point x="1155" y="612" type="line"/>
      <point x="1151" y="538"/>
      <point x="1147" y="518" type="qcurve"/>
      <point x="1132" y="438"/>
      <point x="1009" y="343"/>
      <point x="928" y="343" type="qcurve"/>
      <point x="867" y="343"/>
      <point x="775" y="387"/>
      <point x="724" y="461"/>
      <point x="689" y="557"/>
      <point x="681" y="661"/>
      <point x="675" y="766"/>
      <point x="678" y="811" type="qcurve"/>
      <point x="678" y="841"/>
      <point x="678" y="855" type="qcurve"/>
      <point x="678" y="902"/>
      <point x="680" y="968"/>
      <point x="690" y="1066"/>
      <point x="708" y="1135"/>
      <point x="744" y="1211"/>
      <point x="793" y="1259"/>
      <point x="868" y="1290"/>
      <point x="915" y="1290" type="qcurve"/>
      <point x="978" y="1290"/>
      <point x="1074" y="1235"/>
      <point x="1126" y="1145"/>
      <point x="1150" y="1044"/>
      <point x="1149" y="991" type="qcurve"/>
      <point x="1447" y="991" type="line"/>
      <point x="1446" y="1623" type="line"/>
      <point x="1135" y="1623" type="line"/>
      <point x="1101" y="1552" type="line"/>
      <point x="1056" y="1595"/>
      <point x="921" y="1642"/>
      <point x="815" y="1652"/>
      <point x="741" y="1652" type="qcurve"/>
      <point x="600" y="1652"/>
      <point x="368" y="1554"/>
      <point x="212" y="1390"/>
      <point x="105" y="1169"/>
      <point x="57" y="931"/>
      <point x="57" y="804" type="qcurve"/>
      <point x="57" y="552"/>
      <point x="228" y="181"/>
      <point x="577" y="-29"/>
      <point x="825" y="-29" type="qcurve"/>
      <point x="929" y="-29"/>
      <point x="1136" y="19"/>
      <point x="1282" y="86"/>
      <point x="1398" y="154"/>
      <point x="1427" y="178" type="qcurve"/>
      <point x="1456" y="202" type="line"/>
    </contour>
  </outline>
</glyph>
<glyph name="G" format="1">
  <advance width="1720"/>
  <unicode hex="0047"/>
  <outline>
    <contour>
      <point x="1344" y="0" type="line"/>
      <point x="1620" y="0" type="line"/>
      <point x="1620" y="862" type="line"/>
      <point x="995" y="862" type="line"/>
      <point x="995" y="558" type="line"/>
      <point x="1155" y="557" type="line"/>
      <point x="1163" y="528"/>
      <point x="1163" y="476" type="qcurve"/>
      <point x="1163" y="403"/>
      <point x="1049" y="318"/>
      <point x="973" y="318" type="qcurve"/>
      <point x="658" y="318"/>
      <point x="658" y="759" type="qcurve"/>
      <point x="658" y="822"/>
      <point x="666" y="927"/>
      <point x="688" y="1054"/>
      <point x="733" y="1151"/>
      <point x="801" y="1235"/>
      <point x="909" y="1280"/>
      <point x="979" y="1280" type="qcurve"/>
      <point x="1042" y="1280"/>
      <point x="1137" y="1243"/>
      <point x="1194" y="1186"/>
      <point x="1234" y="1092"/>
      <point x="1253" y="1006"/>
      <point x="1260" y="945" type="qcurve"/>
      <point x="1548" y="945" type="line"/>
      <point x="1548" y="1623" type="line"/>
      <point x="1233" y="1623" type="line"/>
      <point x="1189" y="1561" type="line"/>
      <point x="1061" y="1652"/>
      <point x="856" y="1652" type="qcurve"/>
      <point x="665" y="1652"/>
      <point x="356" y="1516"/>
      <point x="158" y="1280"/>
      <point x="53" y="970"/>
      <point x="53" y="792" type="qcurve"/>
      <point x="53" y="638"/>
      <point x="138" y="374"/>
      <point x="292" y="179"/>
      <point x="504" y="41"/>
      <point x="762" y="-29"/>
      <point x="907" y="-29" type="qcurve"/>
      <point x="1157" y="-29"/>
      <point x="1302" y="101" type="qcurve"/>
    </contour>
  </outline>
</glyph>
<glyph name="H" format="1">
  <advance width="1908"/>
  <unicode hex="0048"/>
  <outline>
    <contour>
      <point x="105" y="0" type="line"/>
      <point x="914" y="0" type="line"/>
      <point x="915" y="359" type="line"/>
      <point x="819" y="359" type="line"/>
      <point x="819" y="635" type="line"/>
      <point x="1088" y="635" type="line"/>
      <point x="1088" y="359" type="line"/>
      <point x="1004" y="359" type="line"/>
      <point x="1004" y="0" type="line"/>
      <point x="1804" y="0" type="line"/>
      <point x="1804" y="359" type="line"/>
      <point x="1657" y="359" type="line"/>
      <point x="1657" y="1270" type="line"/>
      <point x="1798" y="1270" type="line"/>
      <point x="1798" y="1623" type="line"/>
      <point x="1000" y="1623" type="line"/>
      <point x="1000" y="1270" type="line"/>
      <point x="1088" y="1270" type="line"/>
      <point x="1088" y="986" type="line"/>
      <point x="819" y="986" type="line"/>
      <point x="819" y="1270" type="line"/>
      <point x="914" y="1270" type="line"/>
      <point x="914" y="1623" type="line"/>
      <point x="105" y="1623" type="line"/>
      <point x="105" y="1270" type="line"/>
      <point x="252" y="1270" type="line"/>
      <point x="252" y="359" type="line"/>
      <point x="105" y="359" type="line"/>
    </contour>
  </outline>
</glyph>
<glyph name="K" format="1">
  <advance width="1799"/>
  <unicode hex="004B"/>
  <outline>
    <contour>
      <point x="105" y="1270" type="line"/>
      <point x="252" y="1270" type="line"/>
      <point x="252" y="359" type="line"/>
      <point x="105" y="359" type="line"/>
      <point x="105" y="0" type="line"/>
      <point x="932" y="0" type="line"/>
      <point x="932" y="35" type="line"/>
      <point x="926" y="359" type="line"/>
      <point x="799" y="359" type="line"/>
      <point x="799" y="640" type="line"/>
      <point x="969" y="640" type="line"/>
      <point x="1015" y="640"/>
      <point x="1079" y="540"/>
      <point x="1079" y="492" type="qcurve"/>
      <point x="1079" y="307" type="line"/>
      <point x="1079" y="0"/>
      <point x="1415" y="0" type="qcurve"/>
      <point x="1763" y="0" type="line"/>
      <point x="1757" y="359" type="line"/>
      <point x="1667" y="359" type="line"/>
      <point x="1636" y="359"/>
      <point x="1600" y="426"/>
      <point x="1600" y="461" type="qcurve"/>
      <point x="1600" y="602" type="line"/>
      <point x="1600" y="673"/>
      <point x="1549" y="772"/>
      <point x="1452" y="826"/>
      <point x="1332" y="850"/>
      <point x="1254" y="850" type="qcurve"/>
      <point x="1254" y="864" type="line"/>
      <point x="1573" y="1270" type="line"/>
      <point x="1710" y="1270" type="line"/>
      <point x="1710" y="1623" type="line"/>
      <point x="1086" y="1622" type="line"/>
      <point x="1086" y="1270" type="line"/>
      <point x="799" y="887" type="line"/>
      <point x="799" y="1270" type="line"/>
      <point x="926" y="1270" type="line"/>
      <point x="926" y="1622" type="line"/>
      <point x="105" y="1622" type="line"/>
    </contour>
  </outline>
</glyph>
<glyph name="P" format="1">
  <advance width="1651"/>
  <unicode hex="0050"/>
  <outline>
    <contour>
      <point x="99" y="0" type="line"/>
      <point x="960" y="0" type="line"/>
      <point x="960" y="359" type="line"/>
      <point x="814" y="359" type="line"/>
      <point x="814" y="569" type="line"/>
      <point x="893" y="559"/>
      <point x="964" y="559" type="qcurve"/>
      <point x="1117" y="559"/>
      <point x="1354" y="617"/>
      <point x="1533" y="743"/>
      <point x="1626" y="958"/>
      <point x="1624" y="1106" type="qcurve"/>
      <point x="1623" y="1191"/>
      <point x="1592" y="1331"/>
      <point x="1538" y="1432"/>
      <point x="1462" y="1512"/>
      <point x="1370" y="1562"/>
      <point x="1263" y="1598"/>
      <point x="1145" y="1613"/>
      <point x="1020" y="1624"/>
      <point x="890" y="1622"/>
      <point x="825" y="1623" type="qcurve"/>
      <point x="809" y="1623"/>
      <point x="792" y="1623"/>
      <point x="766" y="1623"/>
      <point x="755" y="1623" type="qcurve"/>
      <point x="104" y="1623" type="line"/>
      <point x="104" y="1270" type="line"/>
      <point x="255" y="1270" type="line"/>
      <point x="255" y="359" type="line"/>
      <point x="99" y="359" type="line"/>
    </contour>
    <contour>
      <point x="814" y="1270" type="line"/>
      <point x="898" y="1270" type="line"/>
      <point x="976" y="1270"/>
      <point x="1082" y="1186"/>
      <point x="1082" y="1096" type="qcurve"/>
      <point x="1082" y="895"/>
      <point x="855" y="895" type="qcurve"/>
      <point x="814" y="895" type="line"/>
    </contour>
  </outline>
</glyph>
<glyph name="underscore" format="1">
  <advance width="1165"/>
  <unicode hex="005F"/>
  <outline>
    <contour>
      <point x="-14" y="-1" type="line"/>
      <point x="-14" y="-224" type="line"/>
      <point x="1179" y="-224" type="line"/>
      <point x="1179" y="-1" type="line"/>
    </contour>
  </outline>
</glyph>
<glyph name="r" format="1">
  <advance width="1000"/>
  <unicode hex="0072"/>
  <outline>
    <contour>
      <point x="94" y="761" type="line"/>
      <point x="173" y="761" type="line"/>
      <point x="173" y="305" type="line"/>
      <point x="94" y="305" type="line"/>
      <point x="94" y="0" type="line"/>
      <point x="768" y="0" type="line"/>
      <point x="768" y="305" type="line"/>
      <point x="631" y="305" type="line"/>
      <point x="631" y="426" type="line"/>
      <point x="631" y="547"/>
      <point x="757" y="674"/>
      <point x="867" y="674" type="qcurve"/>
      <point x="973" y="667" type="line"/>
      <point x="973" y="1083" type="line"/>
      <point x="874" y="1083"/>
      <point x="690" y="989"/>
      <point x="641" y="905" type="qcurve"/>
      <point x="637" y="909" type="line"/>
      <point x="637" y="1072" type="line"/>
      <point x="94" y="1072" type="line"/>
    </contour>
  </outline>
</glyph>
<glyph name="s" format="1">
  <advance width="1055"/>
  <unicode hex="0073"/>
  <outline>
    <contour>
      <point x="976" y="761" type="line"/>
      <point x="976" y="1081" type="line"/>
      <point x="808" y="1081" type="line"/>
      <point x="781" y="1033" type="line"/>
      <point x="771" y="1040"/>
      <point x="731" y="1059"/>
      <point x="579" y="1092"/>
      <point x="487" y="1092" type="qcurve"/>
      <point x="366" y="1092"/>
      <point x="185" y="1022"/>
      <point x="75" y="863"/>
      <point x="75" y="746" type="qcurve"/>
      <point x="75" y="669"/>
      <point x="130" y="553"/>
      <point x="217" y="485"/>
      <point x="322" y="436"/>
      <point x="428" y="402"/>
      <point x="515" y="370"/>
      <point x="570" y="321"/>
      <point x="570" y="287" type="qcurve"/>
      <point x="570" y="249"/>
      <point x="503" y="209"/>
      <point x="462" y="209" type="qcurve"/>
      <point x="396" y="209"/>
      <point x="304" y="318"/>
      <point x="292" y="387" type="qcurve"/>
      <point x="71" y="387" type="line"/>
      <point x="64" y="9" type="line"/>
      <point x="241" y="9" type="line"/>
      <point x="277" y="76" type="line"/>
      <point x="377" y="-18"/>
      <point x="585" y="-18" type="qcurve"/>
      <point x="788" y="-18"/>
      <point x="996" y="192"/>
      <point x="996" y="395" type="qcurve"/>
      <point x="996" y="621"/>
      <point x="755" y="719" type="qcurve"/>
      <point x="741" y="724"/>
      <point x="647" y="748"/>
      <point x="577" y="770"/>
      <point x="517" y="816"/>
      <point x="517" y="846" type="qcurve"/>
      <point x="517" y="881"/>
      <point x="572" y="920"/>
      <point x="609" y="920" type="qcurve"/>
      <point x="643" y="920"/>
      <point x="713" y="884"/>
      <point x="732" y="856" type="qcurve"/>
      <point x="736" y="851"/>
      <point x="758" y="803"/>
      <point x="767" y="782" type="qcurve"/>
      <point x="775" y="761" type="line"/>
    </contour>
  </outline>
</glyph>
<glyph name="braceright" format="1">
  <advance width="872"/>
  <unicode hex="007D"/>
  <outline>
    <contour>
      <point x="704" y="1128" type="qcurve"/>
      <point x="704" y="1096"/>
      <point x="715" y="1048"/>
      <point x="746" y="997"/>
      <point x="816" y="967"/>
      <point x="869" y="965" type="qcurve"/>
      <point x="869" y="722" type="line"/>
      <point x="816" y="720"/>
      <point x="746" y="690"/>
      <point x="715" y="639"/>
      <point x="704" y="591"/>
      <point x="704" y="559" type="qcurve"/>
      <point x="704" y="441"/>
      <point x="625" y="236"/>
      <point x="471" y="75"/>
      <point x="219" y="-17"/>
      <point x="58" y="-17" type="qcurve"/>
      <point x="58" y="314" type="line"/>
      <point x="220" y="314"/>
      <point x="220" y="560" type="qcurve"/>
      <point x="220" y="751"/>
      <point x="471" y="843" type="qcurve"/>
      <point x="220" y="936"/>
      <point x="220" y="1127" type="qcurve"/>
      <point x="220" y="1373"/>
      <point x="58" y="1373" type="qcurve"/>
      <point x="58" y="1704" type="line"/>
      <point x="219" y="1704"/>
      <point x="471" y="1612"/>
      <point x="625" y="1451"/>
      <point x="704" y="1246"/>
    </contour>
  </outline>
</glyph>
<glyph name="sterling" format="1">
  <advance width="1285"/>
  <unicode hex="00A3"/>
  <outline>
    <contour>
      <point x="745" y="519" type="line"/>
      <point x="745" y="760" type="line"/>
      <point x="998" y="760" type="line"/>
      <point x="998" y="993" type="line"/>
      <point x="745" y="993" type="line"/>
      <point x="745" y="1117" type="line"/>
      <point x="745" y="1198"/>
      <point x="863" y="1265"/>
      <point x="974" y="1265" type="qcurve"/>
      <point x="1060" y="1265"/>
      <point x="1182" y="1252" type="qcurve"/>
      <point x="1182" y="1563" type="line"/>
      <point x="1050" y="1609"/>
      <point x="865" y="1609" type="qcurve"/>
      <point x="778" y="1609"/>
      <point x="614" y="1583"/>
      <point x="457" y="1522"/>
      <point x="342" y="1432"/>
      <point x="271" y="1293"/>
      <point x="271" y="1207" type="qcurve"/>
      <point x="271" y="993" type="line"/>
      <point x="147" y="993" type="line"/>
      <point x="147" y="760" type="line"/>
      <point x="271" y="760" type="line"/>
      <point x="271" y="520" type="line"/>
      <point x="271" y="410"/>
      <point x="223" y="327"/>
      <point x="161" y="327" type="qcurve"/>
      <point x="123" y="327"/>
      <point x="65" y="340" type="qcurve"/>
      <point x="65" y="29" type="line"/>
      <point x="236" y="-19"/>
      <point x="348" y="-19" type="qcurve"/>
      <point x="586" y="-19"/>
      <point x="690" y="153" type="qcurve"/>
      <point x="690" y="-18"/>
      <point x="944" y="-18" type="qcurve"/>
      <point x="1079" y="-18"/>
      <point x="1216" y="29" type="qcurve"/>
      <point x="1216" y="340" type="line"/>
      <point x="1117" y="331"/>
      <point x="1041" y="331" type="qcurve"/>
      <point x="956" y="331"/>
      <point x="808" y="348"/>
      <point x="776" y="356" type="qcurve"/>
      <point x="745" y="365" type="line"/>
    </contour>
  </outline>
</glyph>
<glyph name="section" format="1">
  <advance width="1080"/>
  <unicode hex="00A7"/>
  <outline>
    <contour>
      <point x="76" y="837" type="qcurve"/>
      <point x="76" y="779"/>
      <point x="134" y="673"/>
      <point x="227" y="593"/>
      <point x="338" y="520"/>
      <point x="450" y="456"/>
      <point x="543" y="394"/>
      <point x="601" y="323"/>
      <point x="601" y="287" type="qcurve"/>
      <point x="601" y="249"/>
      <point x="547" y="209"/>
      <point x="513" y="209" type="qcurve"/>
      <point x="443" y="209"/>
      <point x="345" y="311"/>
      <point x="333" y="379" type="qcurve"/>
      <point x="112" y="379" type="line"/>
      <point x="112" y="1" type="line"/>
      <point x="282" y="1" type="line"/>
      <point x="318" y="68" type="line"/>
      <point x="370" y="15"/>
      <point x="511" y="-18"/>
      <point x="606" y="-18" type="qcurve"/>
      <point x="756" y="-18"/>
      <point x="962" y="175"/>
      <point x="962" y="296" type="qcurve"/>
      <point x="962" y="457"/>
      <point x="801" y="555" type="qcurve"/>
      <point x="901" y="585"/>
      <point x="1013" y="751"/>
      <point x="1013" y="855" type="qcurve"/>
      <point x="1013" y="915"/>
      <point x="956" y="1024"/>
      <point x="864" y="1105"/>
      <point x="754" y="1177"/>
      <point x="644" y="1237"/>
      <point x="552" y="1291"/>
      <point x="495" y="1349"/>
      <point x="495" y="1377" type="qcurve"/>
      <point x="495" y="1419"/>
      <point x="546" y="1466"/>
      <point x="578" y="1466" type="qcurve"/>
      <point x="607" y="1466"/>
      <point x="664" y="1427"/>
      <point x="681" y="1395" type="qcurve"/>
      <point x="724" y="1300" type="line"/>
      <point x="925" y="1300" type="line"/>
      <point x="925" y="1623" type="line"/>
      <point x="757" y="1623" type="line"/>
      <point x="730" y="1572" type="line"/>
      <point x="727" y="1575"/>
      <point x="714" y="1584"/>
      <point x="667" y="1606"/>
      <point x="612" y="1624"/>
      <point x="518" y="1638"/>
      <point x="466" y="1638" type="qcurve"/>
      <point x="318" y="1638"/>
      <point x="115" y="1474"/>
      <point x="115" y="1356" type="qcurve"/>
      <point x="115" y="1216"/>
      <point x="280" y="1097" type="qcurve"/>
      <point x="188" y="1064"/>
      <point x="76" y="922"/>
    </contour>
    <contour>
      <point x="497" y="988" type="qcurve"/>
      <point x="591" y="960"/>
      <point x="724" y="870"/>
      <point x="724" y="821" type="qcurve"/>
      <point x="724" y="744"/>
      <point x="638" y="689" type="qcurve"/>
      <point x="532" y="732"/>
      <point x="395" y="830"/>
      <point x="395" y="878" type="qcurve"/>
      <point x="395" y="938"/>
    </contour>
  </outline>
</glyph>
<glyph name="copyright" format="1">
  <advance width="1806"/>
  <unicode hex="00A9"/>
  <outline>
    <contour>
      <point x="129" y="1106" type="qcurve"/>
      <point x="63" y="956"/>
      <point x="63" y="628"/>
      <point x="196" y="328"/>
      <point x="421" y="111"/>
      <point x="732" y="-18"/>
      <point x="1074" y="-18"/>
      <point x="1385" y="111"/>
      <point x="1610" y="328"/>
      <point x="1743" y="628"/>
      <point x="1743" y="956"/>
      <point x="1610" y="1256"/>
      <point x="1385" y="1473"/>
      <point x="1074" y="1602"/>
      <point x="732" y="1602"/>
      <point x="421" y="1473"/>
      <point x="196" y="1256"/>
    </contour>
    <contour>
      <point x="903" y="1448" type="qcurve"/>
      <point x="1083" y="1448"/>
      <point x="1390" y="1272"/>
      <point x="1569" y="970"/>
      <point x="1569" y="614"/>
      <point x="1390" y="312"/>
      <point x="1083" y="136"/>
      <point x="903" y="136" type="qcurve"/>
      <point x="768" y="136"/>
      <point x="522" y="240"/>
      <point x="343" y="416"/>
      <point x="237" y="659"/>
      <point x="237" y="925"/>
      <point x="343" y="1168"/>
      <point x="522" y="1344"/>
      <point x="768" y="1448"/>
    </contour>
    <contour>
      <point x="1275" y="658" type="line"/>
      <point x="1084" y="658" type="line"/>
      <point x="1082" y="611"/>
      <point x="1079" y="598" type="qcurve"/>
      <point x="1069" y="547"/>
      <point x="992" y="488"/>
      <point x="940" y="488" type="qcurve"/>
      <point x="914" y="488"/>
      <point x="872" y="501"/>
      <point x="841" y="520"/>
      <point x="817" y="555"/>
      <point x="801" y="584"/>
      <point x="790" y="634"/>
      <point x="784" y="665"/>
      <point x="782" y="723"/>
      <point x="781" y="748"/>
      <point x="782" y="805"/>
      <point x="782" y="812" type="qcurve"/>
      <point x="782" y="847"/>
      <point x="784" y="897"/>
      <point x="793" y="968"/>
      <point x="813" y="1017"/>
      <point x="845" y="1064"/>
      <point x="897" y="1088"/>
      <point x="932" y="1088" type="qcurve"/>
      <point x="985" y="1088"/>
      <point x="1055" y="1026"/>
      <point x="1081" y="944"/>
      <point x="1080" y="898" type="qcurve"/>
      <point x="1269" y="898" type="line"/>
      <point x="1269" y="1299" type="line"/>
      <point x="1072" y="1299" type="line"/>
      <point x="1050" y="1254" type="line"/>
      <point x="984" y="1318"/>
      <point x="822" y="1318" type="qcurve"/>
      <point x="733" y="1318"/>
      <point x="585" y="1256"/>
      <point x="486" y="1152"/>
      <point x="418" y="1012"/>
      <point x="388" y="860"/>
      <point x="388" y="780" type="qcurve"/>
      <point x="388" y="536"/>
      <point x="639" y="252"/>
      <point x="875" y="252" type="qcurve"/>
      <point x="941" y="252"/>
      <point x="1073" y="282"/>
      <point x="1165" y="325"/>
      <point x="1239" y="368"/>
      <point x="1257" y="383" type="qcurve"/>
      <point x="1275" y="398" type="line"/>
    </contour>
  </outline>
</glyph>
<glyph name="ordfeminine" format="1">
  <advance width="999"/>
  <unicode hex="00AA"/>
  <outline>
    <contour>
      <point x="37" y="1046" type="qcurve"/>
      <point x="37" y="936"/>
      <point x="205" y="806"/>
      <point x="324" y="806" type="qcurve"/>
      <point x="385" y="806"/>
      <point x="513" y="859"/>
      <point x="550" y="907" type="qcurve"/>
      <point x="587" y="819" type="line"/>
      <point x="935" y="819" type="line"/>
      <point x="935" y="1044" type="line"/>
      <point x="879" y="1044" type="line"/>
      <point x="879" y="1372" type="line"/>
      <point x="879" y="1423"/>
      <point x="841" y="1505"/>
      <point x="786" y="1557"/>
      <point x="703" y="1594"/>
      <point x="631" y="1613"/>
      <point x="539" y="1623"/>
      <point x="490" y="1625"/>
      <point x="460" y="1625" type="qcurve"/>
      <point x="381" y="1625"/>
      <point x="202" y="1599"/>
      <point x="153" y="1586" type="qcurve"/>
      <point x="103" y="1573" type="line"/>
      <point x="103" y="1341" type="line"/>
      <point x="233" y="1341" type="line"/>
      <point x="286" y="1411"/>
      <point x="391" y="1411" type="qcurve"/>
      <point x="547" y="1411"/>
      <point x="547" y="1289" type="qcurve"/>
      <point x="547" y="1256" type="line"/>
      <point x="466" y="1284"/>
      <point x="358" y="1284" type="qcurve"/>
      <point x="297" y="1284"/>
      <point x="184" y="1254"/>
      <point x="92" y="1196"/>
      <point x="37" y="1103"/>
    </contour>
    <contour>
      <point x="399" y="1060" type="qcurve"/>
      <point x="399" y="1091"/>
      <point x="444" y="1142"/>
      <point x="476" y="1142" type="qcurve"/>
      <point x="492" y="1142"/>
      <point x="528" y="1135"/>
      <point x="539" y="1131" type="qcurve"/>
      <point x="549" y="1127" type="line"/>
      <point x="549" y="1018" type="line"/>
      <point x="546" y="1015"/>
      <point x="534" y="1003"/>
      <point x="493" y="984"/>
      <point x="469" y="984" type="qcurve"/>
      <point x="437" y="984"/>
      <point x="399" y="1026"/>
    </contour>
  </outline>
</glyph>
<glyph name="periodcentered" format="1">
  <advance width="682"/>
  <unicode hex="00B7"/>
  <outline>
    <contour>
      <point x="337" y="514" type="qcurve"/>
      <point x="218" y="514"/>
      <point x="60" y="649"/>
      <point x="60" y="764" type="qcurve"/>
      <point x="60" y="877"/>
      <point x="215" y="1009"/>
      <point x="337" y="1009" type="qcurve"/>
      <point x="464" y="1009"/>
      <point x="624" y="877"/>
      <point x="624" y="764" type="qcurve"/>
      <point x="624" y="649"/>
      <point x="459" y="514"/>
    </contour>
  </outline>
</glyph>
<glyph name="threequarters" format="1">
  <advance width="1827"/>
  <unicode hex="00BE"/>
  <outline>
    <contour>
      <point x="83" y="1081" type="qcurve"/>
      <point x="83" y="878" type="line"/>
      <point x="136" y="843"/>
      <point x="268" y="822"/>
      <point x="361" y="822" type="qcurve"/>
      <point x="537" y="822"/>
      <point x="741" y="972"/>
      <point x="741" y="1110" type="qcurve"/>
      <point x="741" y="1192"/>
      <point x="620" y="1323"/>
      <point x="535" y="1331" type="qcurve"/>
      <point x="702" y="1468"/>
      <point x="702" y="1470" type="qcurve"/>
      <point x="702" y="1624" type="line"/>
      <point x="76" y="1624" type="line"/>
      <point x="76" y="1359" type="line"/>
      <point x="189" y="1358" type="line"/>
      <point x="196" y="1385"/>
      <point x="203" y="1404"/>
      <point x="220" y="1433"/>
      <point x="248" y="1442"/>
      <point x="270" y="1442" type="qcurve"/>
      <point x="398" y="1442" type="line"/>
      <point x="398" y="1436" type="line"/>
      <point x="198" y="1266" type="line"/>
      <point x="198" y="1173" type="line"/>
      <point x="198" y="1173"/>
      <point x="199" y="1170" type="qcurve"/>
      <point x="202" y="1168"/>
      <point x="210" y="1168" type="qcurve"/>
      <point x="214" y="1168"/>
      <point x="262" y="1179"/>
      <point x="285" y="1179" type="qcurve"/>
      <point x="343" y="1179"/>
      <point x="431" y="1133"/>
      <point x="431" y="1081" type="qcurve"/>
      <point x="431" y="1036"/>
      <point x="351" y="995"/>
      <point x="300" y="995" type="qcurve"/>
      <point x="189" y="995"/>
    </contour>
    <contour>
      <point x="855" y="0" type="line"/>
      <point x="1357" y="1623" type="line"/>
      <point x="993" y="1623" type="line"/>
      <point x="502" y="0" type="line"/>
    </contour>
    <contour>
      <point x="1642" y="245" type="line"/>
      <point x="1776" y="245" type="line"/>
      <point x="1776" y="396" type="line"/>
      <point x="1643" y="395" type="line"/>
      <point x="1643" y="786" type="line"/>
      <point x="1385" y="787" type="line"/>
      <point x="1061" y="403" type="line"/>
      <point x="1061" y="245" type="line"/>
      <point x="1374" y="245" type="line"/>
      <point x="1374" y="168" type="line"/>
      <point x="1300" y="168" type="line"/>
      <point x="1300" y="-1" type="line"/>
      <point x="1714" y="-1" type="line"/>
      <point x="1714" y="168" type="line"/>
      <point x="1642" y="168" type="line"/>
    </contour>
    <contour>
      <point x="1263" y="397" type="line"/>
      <point x="1374" y="534" type="line"/>
      <point x="1374" y="396" type="line"/>
    </contour>
  </outline>
</glyph>
<glyph name="Eth" format="1">
  <advance width="1802"/>
  <unicode hex="00D0"/>
  <outline>
    <contour>
      <point x="132" y="952" type="line"/>
      <point x="132" y="653" type="line"/>
      <point x="262" y="653" type="line"/>
      <point x="262" y="351" type="line"/>
      <point x="99" y="351" type="line"/>
      <point x="99" y="0" type="line"/>
      <point x="901" y="0" type="line"/>
      <point x="1103" y="0"/>
      <point x="1429" y="134"/>
      <point x="1635" y="361"/>
      <point x="1745" y="653"/>
      <point x="1745" y="816" type="qcurve"/>
      <point x="1745" y="1212"/>
      <point x="1335" y="1623"/>
      <point x="923" y="1623" type="qcurve"/>
      <point x="93" y="1623" type="line"/>
      <point x="93" y="1271" type="line"/>
      <point x="262" y="1271" type="line"/>
      <point x="262" y="952" type="line"/>
    </contour>
    <contour>
      <point x="813" y="351" type="line"/>
      <point x="810" y="653" type="line"/>
      <point x="895" y="653" type="line"/>
      <point x="895" y="952" type="line"/>
      <point x="809" y="952" type="line"/>
      <point x="809" y="1000"/>
      <point x="809" y="1107"/>
      <point x="809" y="1237"/>
      <point x="809" y="1271" type="qcurve"/>
      <point x="856" y="1271" type="line"/>
      <point x="930" y="1271"/>
      <point x="1040" y="1214"/>
      <point x="1102" y="1127"/>
      <point x="1139" y="1001"/>
      <point x="1151" y="886"/>
      <point x="1151" y="817" type="qcurve"/>
      <point x="1151" y="750"/>
      <point x="1136" y="629"/>
      <point x="1094" y="501"/>
      <point x="1028" y="410"/>
      <point x="917" y="351"/>
      <point x="844" y="351" type="qcurve"/>
    </contour>
  </outline>
</glyph>
<glyph name="multiply" format="1">
  <advance width="902"/>
  <unicode hex="00D7"/>
  <outline>
    <contour>
      <point x="451" y="467" type="line"/>
      <point x="259" y="274" type="line"/>
      <point x="86" y="447" type="line"/>
      <point x="278" y="640" type="line"/>
      <point x="74" y="844" type="line"/>
      <point x="254" y="1024" type="line"/>
      <point x="451" y="820" type="line"/>
      <point x="648" y="1024" type="line"/>
      <point x="828" y="844" type="line"/>
      <point x="624" y="640" type="line"/>
      <point x="816" y="447" type="line"/>
      <point x="643" y="274" type="line"/>
    </contour>
  </outline>
</glyph>
<glyph name="ccedilla" format="1">
  <advance width="1112"/>
  <unicode hex="00E7"/>
  <outline>
    <contour>
      <point x="44" y="546" type="qcurve"/>
      <point x="44" y="368"/>
      <point x="191" y="109"/>
      <point x="438" y="-18"/>
      <point x="596" y="-18" type="qcurve"/>
      <point x="722" y="-18"/>
      <point x="970" y="55"/>
      <point x="1039" y="124" type="qcurve"/>
      <point x="1039" y="425" type="line"/>
      <point x="799" y="425" type="line"/>
      <point x="798" y="420"/>
      <point x="795" y="402"/>
      <point x="778" y="357"/>
      <point x="753" y="323"/>
      <point x="704" y="295"/>
      <point x="672" y="295" type="qcurve"/>
      <point x="629" y="295"/>
      <point x="566" y="335"/>
      <point x="532" y="401"/>
      <point x="517" y="473"/>
      <point x="517" y="513" type="qcurve"/>
      <point x="517" y="648"/>
      <point x="609" y="778"/>
      <point x="672" y="778" type="qcurve"/>
      <point x="723" y="778"/>
      <point x="795" y="694"/>
      <point x="795" y="628" type="qcurve"/>
      <point x="1037" y="628" type="line"/>
      <point x="1037" y="1072" type="line"/>
      <point x="862" y="1072" type="line"/>
      <point x="821" y="995" type="line"/>
      <point x="700" y="1092"/>
      <point x="563" y="1092" type="qcurve"/>
      <point x="446" y="1092"/>
      <point x="248" y="1003"/>
      <point x="117" y="853"/>
      <point x="44" y="655"/>
    </contour>
    <contour>
      <point x="475" y="-119" type="line"/>
      <point x="521" y="-145"/>
      <point x="585" y="-231"/>
      <point x="585" y="-271" type="qcurve"/>
      <point x="585" y="-315"/>
      <point x="495" y="-371"/>
      <point x="398" y="-372" type="qcurve"/>
      <point x="398" y="-485" type="line"/>
      <point x="419" y="-485" type="line"/>
      <point x="571" y="-485"/>
      <point x="788" y="-367"/>
      <point x="788" y="-285" type="qcurve"/>
      <point x="788" y="-196"/>
      <point x="655" y="-119" type="qcurve"/>
      <point x="655" y="0" type="line"/>
      <point x="475" y="0" type="line"/>
    </contour>
  </outline>
</glyph>
<glyph name="edieresis" format="1">
  <advance width="1224"/>
  <unicode hex="00EB"/>
  <outline>
    <contour>
      <point x="611" y="-18" type="qcurve"/>
      <point x="771" y="-18"/>
      <point x="1026" y="48"/>
      <point x="1158" y="127" type="qcurve"/>
      <point x="1158" y="365" type="line"/>
      <point x="851" y="365" type="line"/>
      <point x="849" y="292"/>
      <point x="783" y="222"/>
      <point x="711" y="222" type="qcurve"/>
      <point x="629" y="222"/>
      <point x="534" y="355"/>
      <point x="534" y="448" type="qcurve"/>
      <point x="1136" y="448" type="line"/>
      <point x="1155" y="448"/>
      <point x="1164" y="455"/>
      <point x="1173" y="476" type="qcurve"/>
      <point x="1178" y="521"/>
      <point x="1178" y="555" type="qcurve"/>
      <point x="1178" y="705"/>
      <point x="1053" y="945"/>
      <point x="799" y="1092"/>
      <point x="627" y="1092" type="qcurve"/>
      <point x="447" y="1092"/>
      <point x="178" y="943"/>
      <point x="40" y="686"/>
      <point x="40" y="521" type="qcurve"/>
      <point x="40" y="374"/>
      <point x="186" y="128"/>
      <point x="449" y="-18"/>
    </contour>
    <contour>
      <point x="536" y="656" type="line"/>
      <point x="536" y="717"/>
      <point x="590" y="814"/>
      <point x="644" y="814" type="qcurve"/>
      <point x="681" y="814"/>
      <point x="729" y="779"/>
      <point x="747" y="714"/>
      <point x="752" y="662"/>
      <point x="751" y="627" type="qcurve"/>
      <point x="536" y="627" type="line"/>
    </contour>
    <contour>
      <point x="523" y="1342" type="qcurve"/>
      <point x="523" y="1234"/>
      <point x="390" y="1112"/>
      <point x="299" y="1112" type="qcurve"/>
      <point x="206" y="1112"/>
      <point x="71" y="1235"/>
      <point x="71" y="1345" type="qcurve"/>
      <point x="71" y="1452"/>
      <point x="205" y="1572"/>
      <point x="389" y="1572"/>
      <point x="523" y="1451"/>
    </contour>
    <contour>
      <point x="1140" y="1342" type="qcurve"/>
      <point x="1140" y="1234"/>
      <point x="1007" y="1112"/>
      <point x="916" y="1112" type="qcurve"/>
      <point x="823" y="1112"/>
      <point x="688" y="1235"/>
      <point x="688" y="1345" type="qcurve"/>
      <point x="688" y="1452"/>
      <point x="822" y="1572"/>
      <point x="1006" y="1572"/>
      <point x="1140" y="1451"/>
    </contour>
  </outline>
</glyph>
<glyph name="igrave" format="1">
  <advance width="814"/>
  <unicode hex="00EC"/>
  <outline>
    <contour>
      <point x="270" y="1708" type="line"/>
      <point x="744" y="1271" type="line"/>
      <point x="640" y="1130" type="line"/>
      <point x="86" y="1443" type="line"/>
    </contour>
    <contour>
      <point x="661" y="1072" type="line"/>
      <point x="91" y="1072" type="line"/>
      <point x="91" y="747" type="line"/>
      <point x="180" y="747" type="line"/>
      <point x="180" y="299" type="line"/>
      <point x="98" y="299" type="line"/>
      <point x="98" y="0" type="line"/>
      <point x="745" y="0" type="line"/>
      <point x="745" y="299" type="line"/>
      <point x="661" y="299" type="line"/>
    </contour>
  </outline>
</glyph>
<glyph name="idieresis" format="1">
  <advance width="815"/>
  <unicode hex="00EF"/>
  <outline>
    <contour>
      <point x="334" y="1342" type="qcurve"/>
      <point x="334" y="1234"/>
      <point x="201" y="1112"/>
      <point x="110" y="1112" type="qcurve"/>
      <point x="17" y="1112"/>
      <point x="-118" y="1235"/>
      <point x="-118" y="1345" type="qcurve"/>
      <point x="-118" y="1452"/>
      <point x="16" y="1572"/>
      <point x="200" y="1572"/>
      <point x="334" y="1451"/>
    </contour>
    <contour>
      <point x="951" y="1342" type="qcurve"/>
      <point x="951" y="1234"/>
      <point x="818" y="1112"/>
      <point x="727" y="1112" type="qcurve"/>
      <point x="634" y="1112"/>
      <point x="499" y="1235"/>
      <point x="499" y="1345" type="qcurve"/>
      <point x="499" y="1452"/>
      <point x="633" y="1572"/>
      <point x="817" y="1572"/>
      <point x="951" y="1451"/>
    </contour>
    <contour>
      <point x="662" y="1072" type="line"/>
      <point x="92" y="1072" type="line"/>
      <point x="92" y="747" type="line"/>
      <point x="181" y="747" type="line"/>
      <point x="181" y="299" type="line"/>
      <point x="99" y="299" type="line"/>
      <point x="99" y="0" type="line"/>
      <point x="746" y="0" type="line"/>
      <point x="746" y="299" type="line"/>
      <point x="662" y="299" type="line"/>
    </contour>
  </outline>
</glyph>
<glyph name="odieresis" format="1">
  <advance width="1290"/>
  <unicode hex="00F6"/>
  <outline>
    <contour>
      <point x="43" y="547" type="qcurve"/>
      <point x="43" y="807"/>
      <point x="365" y="1091"/>
      <point x="925" y="1091"/>
      <point x="1247" y="807"/>
      <point x="1247" y="547" type="qcurve"/>
      <point x="1247" y="372"/>
      <point x="1094" y="114"/>
      <point x="823" y="-18"/>
      <point x="467" y="-18"/>
      <point x="196" y="114"/>
      <point x="43" y="372"/>
    </contour>
    <contour>
      <point x="508" y="545" type="qcurve"/>
      <point x="508" y="294"/>
      <point x="782" y="294"/>
      <point x="782" y="545" type="qcurve"/>
      <point x="782" y="596"/>
      <point x="773" y="667"/>
      <point x="747" y="741"/>
      <point x="689" y="779"/>
      <point x="601" y="779"/>
      <point x="543" y="741"/>
      <point x="517" y="667"/>
      <point x="508" y="596"/>
    </contour>
    <contour>
      <point x="558" y="1342" type="qcurve"/>
      <point x="558" y="1234"/>
      <point x="425" y="1112"/>
      <point x="334" y="1112" type="qcurve"/>
      <point x="241" y="1112"/>
      <point x="106" y="1235"/>
      <point x="106" y="1345" type="qcurve"/>
      <point x="106" y="1452"/>
      <point x="240" y="1572"/>
      <point x="424" y="1572"/>
      <point x="558" y="1451"/>
    </contour>
    <contour>
      <point x="1175" y="1342" type="qcurve"/>
      <point x="1175" y="1234"/>
      <point x="1042" y="1112"/>
      <point x="951" y="1112" type="qcurve"/>
      <point x="858" y="1112"/>
      <point x="723" y="1235"/>
      <point x="723" y="1345" type="qcurve"/>
      <point x="723" y="1452"/>
      <point x="857" y="1572"/>
      <point x="1041" y="1572"/>
      <point x="1175" y="1451"/>
    </contour>
  </outline>
</glyph>
<glyph name="Tcommaaccent" format="1">
  <advance width="1531"/>
  <unicode hex="0162"/>
  <outline>
    <contour>
      <point x="1494" y="965" type="line"/>
      <point x="1494" y="1622" type="line"/>
      <point x="37" y="1622" type="line"/>
      <point x="37" y="965" type="line"/>
      <point x="318" y="965" type="line"/>
      <point x="382" y="1270" type="line"/>
      <point x="482" y="1270" type="line"/>
      <point x="482" y="360" type="line"/>
      <point x="318" y="360" type="line"/>
      <point x="318" y="0" type="line"/>
      <point x="1209" y="0" type="line"/>
      <point x="1209" y="360" type="line"/>
      <point x="1045" y="360" type="line"/>
      <point x="1045" y="1270" type="line"/>
      <point x="1151" y="1270" type="line"/>
      <point x="1213" y="965" type="line"/>
    </contour>
    <contour>
      <point x="372" y="-899" type="line"/>
      <point x="646" y="-899"/>
      <point x="906" y="-640"/>
      <point x="906" y="-362" type="qcurve"/>
      <point x="906" y="-239"/>
      <point x="882" y="-85" type="qcurve"/>
      <point x="372" y="-85" type="line"/>
      <point x="372" y="-451" type="line"/>
      <point x="561" y="-451" type="line"/>
      <point x="561" y="-493"/>
      <point x="559" y="-538"/>
      <point x="548" y="-598"/>
      <point x="524" y="-630"/>
      <point x="483" y="-661"/>
      <point x="417" y="-674"/>
      <point x="372" y="-674" type="qcurve"/>
    </contour>
  </outline>
</glyph>
<glyph name="uni020C" format="1">
  <advance width="1744"/>
  <unicode hex="020C"/>
  <outline>
    <contour>
      <point x="1692" y="808" type="qcurve"/>
      <point x="1692" y="573"/>
      <point x="1477" y="189"/>
      <point x="1101" y="-29"/>
      <point x="643" y="-29"/>
      <point x="267" y="189"/>
      <point x="52" y="573"/>
      <point x="52" y="808" type="qcurve"/>
      <point x="52" y="1066"/>
      <point x="267" y="1453"/>
      <point x="636" y="1653"/>
      <point x="1108" y="1653"/>
      <point x="1477" y="1453"/>
      <point x="1692" y="1066"/>
    </contour>
    <contour>
      <point x="872" y="319" type="qcurve"/>
      <point x="911" y="319"/>
      <point x="973" y="345"/>
      <point x="1016" y="391"/>
      <point x="1048" y="453"/>
      <point x="1066" y="526"/>
      <point x="1078" y="604"/>
      <point x="1081" y="683"/>
      <point x="1083" y="759"/>
      <point x="1082" y="793" type="qcurve"/>
      <point x="1082" y="813"/>
      <point x="1082" y="823" type="qcurve"/>
      <point x="1082" y="834"/>
      <point x="1082" y="858" type="qcurve"/>
      <point x="1081" y="894"/>
      <point x="1083" y="974"/>
      <point x="1074" y="1059"/>
      <point x="1061" y="1139"/>
      <point x="1029" y="1211"/>
      <point x="986" y="1265"/>
      <point x="916" y="1296"/>
      <point x="872" y="1296" type="qcurve"/>
      <point x="833" y="1296"/>
      <point x="770" y="1272"/>
      <point x="728" y="1229"/>
      <point x="695" y="1172"/>
      <point x="678" y="1105"/>
      <point x="665" y="1032"/>
      <point x="663" y="959"/>
      <point x="660" y="889"/>
      <point x="662" y="858" type="qcurve"/>
      <point x="662" y="834"/>
      <point x="662" y="823" type="qcurve"/>
      <point x="662" y="813"/>
      <point x="662" y="793" type="qcurve"/>
      <point x="663" y="763"/>
      <point x="661" y="697"/>
      <point x="666" y="626"/>
      <point x="672" y="556"/>
      <point x="687" y="488"/>
      <point x="707" y="428"/>
      <point x="739" y="377"/>
      <point x="780" y="340"/>
      <point x="838" y="319"/>
    </contour>
    <contour>
      <point x="1115" y="2385" type="line"/>
      <point x="1268" y="1759" type="line"/>
      <point x="1103" y="1699" type="line"/>
      <point x="815" y="2266" type="line"/>
    </contour>
    <contour>
      <point x="515" y="2366" type="line"/>
      <point x="822" y="1799" type="line"/>
      <point x="678" y="1700" type="line"/>
      <point x="255" y="2175" type="line"/>
    </contour>
  </outline>
</glyph>
<glyph name="uni0213" format="1">
  <advance width="1000"/>
  <unicode hex="0213"/>
  <outline>
    <contour>
      <point x="94" y="761" type="line"/>
      <point x="173" y="761" type="line"/>
      <point x="173" y="305" type="line"/>
      <point x="94" y="305" type="line"/>
      <point x="94" y="0" type="line"/>
      <point x="768" y="0" type="line"/>
      <point x="768" y="305" type="line"/>
      <point x="631" y="305" type="line"/>
      <point x="631" y="426" type="line"/>
      <point x="631" y="547"/>
      <point x="757" y="674"/>
      <point x="867" y="674" type="qcurve"/>
      <point x="973" y="667" type="line"/>
      <point x="973" y="1083" type="line"/>
      <point x="874" y="1083"/>
      <point x="690" y="989"/>
      <point x="641" y="905" type="qcurve"/>
      <point x="637" y="909" type="line"/>
      <point x="637" y="1072" type="line"/>
      <point x="94" y="1072" type="line"/>
    </contour>
    <contour>
      <point x="130" y="1152" type="qcurve"/>
      <point x="382" y="1152" type="line"/>
      <point x="382" y="1228"/>
      <point x="472" y="1313"/>
      <point x="596" y="1313"/>
      <point x="686" y="1228"/>
      <point x="686" y="1152" type="qcurve"/>
      <point x="938" y="1152" type="line"/>
      <point x="938" y="1235"/>
      <point x="869" y="1369"/>
      <point x="754" y="1452"/>
      <point x="611" y="1496"/>
      <point x="457" y="1496"/>
      <point x="314" y="1452"/>
      <point x="199" y="1369"/>
      <point x="130" y="1235"/>
    </contour>
  </outline>
</glyph>
<glyph name="breve" format="1">
  <advance width="1707"/>
  <unicode hex="02D8"/>
  <outline>
    <contour>
      <point x="770" y="1245" type="qcurve"/>
      <point x="571" y="1245"/>
      <point x="366" y="1445"/>
      <point x="366" y="1622" type="qcurve"/>
      <point x="618" y="1622" type="line"/>
      <point x="618" y="1546"/>
      <point x="708" y="1461"/>
      <point x="832" y="1461"/>
      <point x="922" y="1546"/>
      <point x="922" y="1622" type="qcurve"/>
      <point x="1174" y="1622" type="line"/>
      <point x="1174" y="1446"/>
      <point x="967" y="1245"/>
    </contour>
  </outline>
</glyph>
<glyph name="quotesinglbase" format="1">
  <advance width="716"/>
  <unicode hex="201A"/>
  <outline>
    <contour>
      <point x="95" y="-448" type="line"/>
      <point x="369" y="-448"/>
      <point x="629" y="-189"/>
      <point x="629" y="89" type="qcurve"/>
      <point x="629" y="212"/>
      <point x="605" y="366" type="qcurve"/>
      <point x="95" y="366" type="line"/>
      <point x="95" y="0" type="line"/>
      <point x="284" y="0" type="line"/>
      <point x="284" y="-42"/>
      <point x="282" y="-87"/>
      <point x="271" y="-147"/>
      <point x="247" y="-179"/>
      <point x="206" y="-210"/>
      <point x="140" y="-223"/>
      <point x="95" y="-223" type="qcurve"/>
    </contour>
  </outline>
</glyph>
<glyph name="daggerdbl" format="1">
  <advance width="935"/>
  <unicode hex="2021"/>
  <outline>
    <contour>
      <point x="71" y="991" type="line"/>
      <point x="313" y="991" type="line"/>
      <point x="313" y="681" type="line"/>
      <point x="71" y="681" type="line"/>
      <point x="71" y="386" type="line"/>
      <point x="313" y="386" type="line"/>
      <point x="313" y="0" type="line"/>
      <point x="628" y="0" type="line"/>
      <point x="628" y="386" type="line"/>
      <point x="863" y="386" type="line"/>
      <point x="863" y="681" type="line"/>
      <point x="628" y="681" type="line"/>
      <point x="628" y="991" type="line"/>
      <point x="863" y="991" type="line"/>
      <point x="863" y="1286" type="line"/>
      <point x="628" y="1286" type="line"/>
      <point x="628" y="1623" type="line"/>
      <point x="313" y="1623" type="line"/>
      <point x="313" y="1286" type="line"/>
      <point x="71" y="1286" type="line"/>
    </contour>
  </outline>
</glyph>
<glyph name="summation" format="1">
  <advance width="1421"/>
  <unicode hex="2211"/>
  <outline>
    <contour>
      <point x="935" y="833" type="line"/>
      <point x="754" y="1270" type="line"/>
      <point x="997" y="1270" type="line"/>
      <point x="1073" y="968" type="line"/>
      <point x="1341" y="969" type="line"/>
      <point x="1341" y="1623" type="line"/>
      <point x="73" y="1623" type="line"/>
      <point x="73" y="1270" type="line"/>
      <point x="231" y="1270" type="line"/>
      <point x="419" y="833" type="line"/>
      <point x="231" y="348" type="line"/>
      <point x="73" y="348" type="line"/>
      <point x="73" y="0" type="line"/>
      <point x="1352" y="0" type="line"/>
      <point x="1352" y="687" type="line"/>
      <point x="1079" y="687" type="line"/>
      <point x="1016" y="420" type="line"/>
      <point x="1003" y="350" type="line"/>
      <point x="754" y="350" type="line"/>
    </contour>
  </outline>
</glyph>
